# xmcd
#
# Track frame offsets: 
#        150
#        17231
#        33900
#        52806
#        71134
#        87963
#        102645
#        117441
#        136602
#        156990
#        176048
#        192994
#        200149
#        214322
#        235563
#        258366
#        267116
#        278843
#        287705
#        298412
#        313388
#
# Disc length: 4211 seconds
#
# Revision: 0
# Processed by: cddbd v1.5.2PL0 Copyright (c) Steve Scherf et al.
# Submitted via: ExactAudioCopyFreeDBPlugin 1.0
#
DISCID=4b107115
DTITLE=Lewis Melville - Niagra
DYEAR=1995
DGENRE=
TTITLE0=Travelling Wave
TTITLE1=Over The Falls
TTITLE2=Grendel
TTITLE3=Invisible
TTITLE4=Hardware Theme
TTITLE5=Time To Get Up
TTITLE6=Typical Day
TTITLE7=Green Coconut Curry
TTITLE8=She's Going To Toronto
TTITLE9=I've Got A Question
TTITLE10=If You Really Mean To Tell Me
TTITLE11=Behind The Falls
TTITLE12=Moolah Moneybags
TTITLE13=100 Cats
TTITLE14=Spend It
TTITLE15=Hibou
TTITLE16=Paper
TTITLE17=Mistaken
TTITLE18=Kitchen
TTITLE19=Hrothgar
TTITLE20=Finale
EXTD=
EXTT0=
EXTT1=
EXTT2=
EXTT3=
EXTT4=
EXTT5=
EXTT6=
EXTT7=
EXTT8=
EXTT9=
EXTT10=
EXTT11=
EXTT12=
EXTT13=
EXTT14=
EXTT15=
EXTT16=
EXTT17=
EXTT18=
EXTT19=
EXTT20=
PLAYORDER=
